<?xml version="1.0" standalone="no"?>
<!DOCTYPE svg PUBLIC "-//W3C//DTD SVG 20010904//EN"
 "http://www.w3.org/TR/2001/REC-SVG-20010904/DTD/svg10.dtd">
<svg version="1.0" xmlns="http://www.w3.org/2000/svg"
 width="1275.000000pt" height="1275.000000pt" viewBox="0 0 1275.000000 1275.000000"
 preserveAspectRatio="xMidYMid meet">
<metadata>
Created by potrace 1.14, written by Peter Selinger 2001-2017
</metadata>
<g transform="translate(0.000000,1275.000000) scale(0.100000,-0.100000)"
fill="#000000" stroke="none">
<path d="M6360 12628 c0 -11 -20 -81 -77 -263 l-24 -80 -170 2 c-93 1 -169 0
-169 -2 0 -1 61 -51 135 -110 74 -59 135 -113 135 -119 0 -6 -22 -87 -50 -180
-27 -93 -50 -171 -50 -174 0 -3 12 5 26 19 l26 24 -21 -40 c-11 -22 -21 -45
-21 -52 0 -28 -16 -10 -33 35 -26 75 -86 137 -147 152 -144 34 -260 -56 -228
-177 12 -45 70 -101 112 -109 62 -11 117 36 106 91 -1 6 4 5 10 -1 18 -18 13
-124 -8 -175 -36 -83 -115 -150 -174 -148 -18 0 -16 3 12 13 40 14 60 46 60
95 0 42 -35 96 -72 112 -61 25 -167 -17 -209 -84 -36 -57 -16 -189 37 -242 15
-15 15 -17 0 -28 -10 -7 -20 -31 -23 -54 -4 -34 -2 -43 15 -52 10 -6 23 -7 28
-3 5 4 2 -1 -5 -10 -7 -10 -29 -22 -48 -27 -48 -14 -181 -6 -243 14 -18 6 -18
7 2 41 42 71 -6 174 -88 190 -103 19 -192 -68 -165 -163 9 -31 9 -31 -36 -38
-55 -8 -127 -38 -169 -70 l-31 -24 -16 33 c-17 37 -69 66 -117 66 -73 0 -133
-62 -133 -137 0 -69 58 -133 122 -135 28 -1 32 -4 26 -22 -3 -12 -9 -61 -12
-109 l-6 -88 -36 5 c-100 14 -182 -90 -144 -184 35 -86 117 -113 199 -65 l42
25 13 -33 c7 -17 35 -61 62 -96 l48 -64 -24 -26 c-50 -54 -60 -106 -31 -167
17 -35 81 -74 122 -74 38 0 89 31 113 69 l23 37 77 -40 c75 -38 77 -39 57 -55
-13 -11 -20 -29 -21 -53 -1 -47 19 -71 53 -65 25 6 26 5 24 -60 -1 -56 3 -74
31 -127 24 -44 32 -69 28 -90 -8 -42 21 -59 159 -93 65 -15 118 -31 118 -34 0
-3 -66 -5 -147 -4 l-147 0 -9 39 c-11 46 -89 131 -130 141 -63 16 -130 -21
-177 -97 l-17 -28 -22 26 c-53 61 -158 77 -239 35 -42 -21 -86 -68 -97 -100
-5 -17 -15 -20 -65 -19 -76 1 -147 -38 -209 -113 -36 -44 -51 -55 -79 -57 -44
-3 -80 -22 -119 -62 -35 -36 -78 -113 -88 -159 -4 -17 -11 -31 -16 -31 -6 0
-29 -9 -53 -20 -87 -39 -136 -131 -136 -252 0 -52 -2 -58 -21 -58 -11 0 -18 4
-14 10 13 21 -8 58 -43 77 -26 13 -44 34 -60 67 -27 57 -71 80 -135 71 -42 -7
-117 -42 -117 -56 0 -4 -17 -13 -37 -19 -43 -14 -80 -44 -89 -72 -3 -10 -22
-26 -42 -36 -20 -9 -49 -36 -65 -59 -15 -24 -34 -43 -42 -43 -17 0 -70 -127
-91 -216 -8 -37 -14 -93 -13 -125 2 -51 -2 -65 -44 -138 -25 -45 -67 -137 -92
-205 -42 -111 -115 -246 -133 -246 -4 0 -28 19 -54 43 -42 37 -47 46 -42 72 3
17 6 73 7 125 1 131 -9 186 -54 324 -17 50 -33 97 -36 105 -3 8 -1 11 5 7 6
-3 20 -32 32 -64 26 -69 48 -147 64 -230 14 -67 15 -67 57 -22 56 60 72 96 71
156 -2 109 -105 342 -194 438 -10 11 -17 21 -15 22 1 1 27 -4 57 -12 30 -8 66
-12 80 -10 47 7 80 18 80 25 0 5 20 29 45 55 54 58 62 105 20 132 -21 14 -25
24 -25 63 0 53 18 77 125 166 81 67 111 101 141 159 14 27 38 69 55 94 71 106
126 241 135 332 11 120 17 136 47 147 25 8 21 7 99 21 74 14 144 51 189 99 33
35 118 166 162 248 10 19 25 35 32 35 8 0 39 9 69 20 58 22 86 59 86 114 0 35
26 49 143 82 83 23 96 29 80 38 -10 6 -69 11 -136 11 -101 0 -121 3 -131 18
-24 32 -67 32 -113 -2 -24 -17 -45 -31 -48 -31 -13 0 -3 27 15 37 34 22 52 70
45 122 -6 42 -3 51 23 84 32 40 79 85 108 104 17 10 15 12 -17 12 -20 1 -57
-5 -82 -13 -26 -8 -47 -12 -47 -9 0 3 -15 -4 -33 -14 -21 -13 -44 -18 -68 -15
-31 3 -40 -1 -68 -33 -17 -20 -34 -50 -38 -66 -3 -16 -11 -29 -18 -29 -9 0
-10 9 -2 40 9 32 8 46 -6 75 -16 33 -16 38 -1 68 9 18 37 53 62 80 51 51 52
48 -29 49 -46 1 -97 -23 -129 -58 -17 -19 -39 -37 -50 -39 -32 -6 -41 -15 -57
-54 -11 -23 -18 -31 -21 -21 -2 8 -14 25 -25 38 -31 33 -26 92 11 152 l30 48
-31 -11 c-18 -6 -58 -37 -89 -68 -31 -32 -68 -61 -83 -65 -14 -3 -31 -16 -37
-28 -17 -31 -19 -182 -4 -248 13 -53 12 -63 -15 -170 -40 -155 -41 -163 -53
-293 -4 -45 -12 -87 -36 -195 -17 -77 -36 -104 -121 -168 l-56 -42 -49 21
c-26 12 -64 24 -84 26 -52 7 -75 26 -119 100 -70 121 -135 161 -268 167 -154
6 -192 59 -131 179 l19 38 -37 -5 c-60 -10 -152 -65 -204 -124 l-48 -54 -43
27 c-23 15 -61 48 -85 73 l-42 47 -9 -45 c-6 -25 -9 -64 -7 -88 2 -37 0 -43
-14 -37 -35 14 -148 17 -191 5 l-45 -12 54 -47 54 -48 -29 -7 c-58 -15 -126
-76 -217 -195 -55 -74 -130 -79 -213 -16 -25 20 -51 32 -60 29 -34 -13 -45
-136 -20 -219 8 -27 13 -50 12 -50 -134 -85 -209 -192 -221 -317 -4 -43 1 -46
35 -20 32 24 90 51 129 59 l32 6 -20 -39 c-11 -21 -38 -97 -60 -169 -69 -225
-100 -289 -177 -372 -24 -26 -45 -51 -45 -55 0 -7 85 -41 103 -41 7 0 39 3 72
7 l61 7 1 -34 c1 -42 22 -173 34 -212 5 -16 11 -48 15 -70 3 -22 8 -43 10 -47
6 -9 16 -102 18 -163 2 -47 -15 -160 -29 -196 -7 -17 5 -18 71 -4 l31 7 10
-89 c6 -48 9 -140 8 -203 -2 -110 -8 -143 -51 -254 -7 -18 -3 -19 50 -13 33 3
76 16 103 31 54 31 56 31 49 9 -2 -10 -7 -49 -11 -88 -13 -145 -26 -204 -70
-310 -46 -112 -92 -191 -159 -274 -41 -51 -88 -121 -105 -156 -33 -66 -176
-478 -187 -537 -24 -129 -23 -203 2 -301 l15 -59 -42 -66 c-67 -105 -71 -113
-106 -182 -53 -105 -130 -311 -147 -392 -3 -13 -8 -34 -11 -48 -16 -64 -45
-258 -50 -337 -19 -252 -1 -407 67 -583 27 -69 90 -192 121 -234 88 -123 228
-275 377 -411 31 -27 98 -88 149 -135 174 -158 257 -250 358 -400 47 -69 127
-218 154 -287 22 -55 20 -143 -6 -218 -13 -38 -26 -90 -30 -115 -3 -25 -8 -54
-10 -65 -2 -11 -4 -39 -4 -62 -1 -29 -5 -41 -13 -38 -32 10 -113 15 -233 15
-443 0 -759 -178 -840 -475 -23 -83 -27 -233 -9 -330 22 -117 23 -118 53 -35
108 292 262 425 506 435 84 4 252 -20 286 -40 6 -4 -36 -20 -92 -34 -252 -66
-396 -163 -445 -298 -28 -80 -12 -206 42 -320 27 -56 122 -202 168 -257 l23
-28 -1 118 c-1 137 5 179 34 255 44 112 124 187 247 231 75 27 245 30 348 5
252 -60 500 -209 710 -429 320 -334 446 -437 670 -551 194 -98 402 -149 615
-149 136 0 205 16 282 67 20 14 40 25 44 25 18 0 128 100 159 144 46 67 63
124 63 211 0 143 -74 303 -206 445 -28 30 -50 56 -47 58 9 9 209 -40 344 -85
100 -33 520 -192 566 -213 97 -46 559 -179 715 -206 25 -4 47 -8 50 -9 14 -3
90 -15 130 -20 25 -4 56 -8 71 -10 27 -5 133 -14 239 -21 81 -5 433 -5 480 0
19 3 69 7 110 11 365 31 653 101 1090 262 96 36 189 71 205 78 169 76 540 194
663 211 l42 6 -48 -49 c-108 -110 -189 -252 -212 -371 -40 -201 45 -351 270
-475 90 -49 135 -59 274 -59 219 0 418 50 629 158 189 97 305 190 572 458 142
143 261 253 310 288 85 59 240 148 259 148 6 0 20 6 31 14 16 11 145 56 161
56 2 0 4 -13 4 -30 0 -16 2 -30 5 -30 15 0 102 50 118 68 16 18 29 20 101 17
106 -4 181 -27 255 -76 127 -85 183 -225 176 -443 l-3 -108 30 36 c88 107 180
268 203 357 21 79 17 180 -11 238 -57 125 -229 228 -467 281 -32 8 -60 16 -62
20 -8 12 157 43 244 46 98 3 210 -22 280 -63 110 -63 218 -214 274 -380 l24
-72 11 37 c17 55 32 168 32 237 0 141 -59 298 -147 391 -125 132 -270 201
-513 243 -67 11 -364 13 -413 2 -34 -8 -36 -7 -71 45 -38 58 -82 199 -67 218
16 20 31 81 35 142 2 33 11 76 19 95 89 208 220 401 384 564 22 22 82 78 134
125 312 282 418 393 516 540 137 204 197 412 194 665 -2 200 -25 367 -77 562
-48 182 -133 375 -234 531 -50 80 -51 81 -40 124 20 72 21 80 21 158 0 118 -8
151 -100 424 -86 253 -112 307 -207 426 -75 95 -116 168 -172 311 -37 92 -42
116 -58 274 -3 39 -8 73 -11 78 -2 4 12 7 31 7 20 0 36 2 36 5 0 3 -11 27 -24
53 -42 82 -42 111 -6 186 18 37 35 65 36 63 2 -2 7 -37 10 -78 4 -41 8 -76 10
-78 3 -3 17 5 32 16 40 30 73 102 87 195 7 46 14 74 15 63 1 -11 4 -29 6 -40
3 -11 5 -51 5 -88 1 -65 2 -68 22 -61 38 11 86 66 109 123 18 47 21 78 22 191
1 139 -6 224 -24 292 -13 46 -9 54 30 63 17 4 30 9 30 11 0 2 -24 37 -53 77
-28 39 -62 90 -74 112 -39 73 -127 295 -119 302 1 2 18 -10 37 -27 77 -68 199
-102 257 -71 22 12 22 12 -24 58 -60 61 -128 164 -192 291 -29 56 -52 104 -52
107 0 2 15 -2 33 -10 68 -28 161 -21 216 17 21 15 20 16 -31 41 -73 36 -117
75 -200 176 -39 47 -85 99 -101 115 -38 35 -121 93 -147 101 -19 6 -19 8 5 55
14 27 25 56 25 64 0 23 -59 66 -91 66 l-30 0 41 42 c51 53 74 115 99 265 11
65 27 137 35 161 16 45 15 46 -34 10 -20 -14 -201 -85 -291 -114 -14 -5 -17 4
-18 56 -1 34 -3 66 -6 70 -3 5 -8 64 -12 132 -3 68 -6 124 -7 125 -3 4 -206
-114 -235 -138 -19 -15 -37 -26 -41 -24 -8 5 -66 158 -76 200 -4 19 -8 24 -11
15 -15 -43 -40 -90 -71 -132 l-35 -47 -25 27 c-42 48 -111 142 -117 162 -4 11
-10 20 -15 20 -14 0 -108 -178 -127 -240 -9 -30 -18 -57 -19 -59 -2 -1 -29 13
-62 34 -55 33 -135 65 -220 85 -29 7 -33 6 -27 -8 40 -98 48 -134 51 -234 l4
-108 -25 10 c-41 15 -89 41 -108 58 -25 23 -28 12 -11 -48 8 -30 17 -72 20
-93 l6 -37 -49 21 c-50 22 -158 30 -198 16 -18 -7 -22 -1 -37 60 -10 37 -19
93 -22 123 -12 126 -17 163 -21 170 -2 4 -7 22 -10 41 -3 19 -17 75 -30 126
-21 76 -23 96 -14 120 15 36 20 217 7 254 -6 18 -22 33 -46 42 -20 9 -49 31
-64 50 -25 32 -112 97 -129 97 -5 0 5 -21 21 -47 38 -63 44 -115 18 -145 -11
-13 -24 -30 -28 -38 -9 -16 -9 -17 -30 24 -8 16 -28 34 -44 39 -16 5 -42 25
-58 43 -30 34 -74 52 -138 55 -63 3 -64 0 -16 -51 26 -28 54 -66 62 -86 13
-31 13 -37 -1 -57 -17 -24 -20 -83 -5 -92 13 -8 13 -35 1 -35 -5 0 -15 17 -22
37 -6 20 -26 52 -43 71 -27 30 -36 33 -68 29 -21 -3 -44 0 -55 8 -24 17 -86
34 -152 42 l-55 6 40 -34 c51 -44 104 -100 106 -113 1 -6 2 -39 2 -74 1 -59 3
-66 35 -94 20 -18 30 -33 24 -39 -6 -6 -17 -2 -29 10 -51 47 -90 52 -123 17
-22 -23 -28 -24 -124 -21 -56 2 -118 -2 -137 -7 l-35 -11 45 -14 c25 -8 55
-16 68 -19 31 -6 104 -35 120 -47 6 -5 12 -22 12 -38 0 -63 49 -108 133 -123
22 -4 41 -14 44 -24 3 -9 29 -53 57 -97 29 -44 58 -92 65 -107 45 -88 159
-154 296 -172 17 -2 38 -7 47 -11 20 -8 38 -63 38 -115 0 -86 69 -260 152
-385 19 -27 39 -64 47 -82 7 -17 23 -41 37 -54 13 -12 24 -26 24 -30 0 -5 -21
-14 -46 -22 l-47 -13 32 -36 c22 -26 48 -41 91 -54 39 -11 57 -21 51 -28 -4
-6 -27 -58 -51 -116 -48 -118 -90 -207 -112 -239 l-15 -22 -13 30 c-14 34 -41
61 -75 76 -13 5 -35 26 -47 45 -22 32 -34 41 -98 69 -14 6 -40 22 -58 35 -42
32 -97 40 -147 24 -33 -11 -44 -22 -63 -61 -15 -31 -36 -56 -58 -69 -39 -23
-57 -49 -48 -72 4 -12 0 -16 -15 -16 -19 0 -21 6 -22 58 0 31 -2 65 -4 74 -17
89 -71 157 -145 184 -37 13 -50 24 -55 43 -12 49 -55 127 -87 159 -40 41 -75
60 -122 65 -25 3 -43 12 -53 28 -9 13 -38 45 -66 70 -54 52 -115 75 -183 71
-37 -2 -43 1 -54 27 -27 66 -120 120 -201 116 -52 -3 -95 -22 -130 -59 l-23
-24 -25 36 c-44 65 -82 92 -129 92 -64 0 -139 -62 -163 -135 -7 -22 -15 -42
-17 -45 -2 -3 -73 -5 -158 -6 -84 0 -152 1 -151 3 2 1 55 16 118 32 63 16 126
34 141 40 27 10 45 47 35 73 -2 7 9 39 25 71 21 43 30 77 33 125 3 64 4 67 27
64 14 -2 31 4 38 13 21 25 16 86 -8 106 -20 15 -18 17 58 57 73 39 79 40 85
23 11 -34 66 -79 105 -86 74 -12 147 41 157 114 7 51 -18 113 -52 131 l-24 13
38 46 c21 25 51 69 66 96 16 28 30 52 31 54 2 2 15 -6 29 -18 88 -68 218 -4
218 108 0 79 -73 144 -152 135 l-38 -5 -6 83 c-3 46 -9 94 -12 108 -6 22 -3
26 22 28 47 3 77 21 102 58 62 90 -2 214 -109 214 -32 0 -100 -26 -100 -39 0
-3 -9 -17 -19 -30 l-18 -23 -40 26 c-46 31 -141 66 -178 66 -15 0 -24 4 -21 8
31 51 -2 149 -58 176 -44 21 -100 20 -136 0 -60 -36 -84 -123 -50 -181 l19
-32 -42 -12 c-95 -25 -235 -18 -262 13 -6 7 -9 12 -6 11 2 -1 12 2 22 8 24 12
24 45 0 92 -15 29 -16 39 -6 45 45 26 69 164 40 227 -35 73 -146 124 -213 96
-69 -29 -97 -139 -46 -186 15 -14 38 -25 51 -25 13 0 21 -4 18 -10 -9 -14
-103 25 -137 57 -46 44 -79 125 -79 195 -1 35 4 65 12 72 9 8 10 8 5 -1 -10
-18 15 -63 45 -79 38 -19 66 -18 105 7 93 57 101 187 15 249 -35 24 -135 34
-184 18 -62 -21 -127 -103 -145 -182 l-7 -33 -28 61 -28 60 27 -24 c24 -23 26
-23 21 -5 -6 23 -61 207 -82 277 -8 26 -15 53 -15 61 0 8 61 63 136 123 l137
109 -176 3 -175 2 -8 38 c-4 20 -9 42 -10 47 -2 6 -20 67 -41 138 -20 70 -40
127 -45 127 -4 0 -8 -5 -8 -12z m25 -315 c5 -19 3 -23 -15 -23 -16 0 -20 4
-16 16 3 9 6 23 6 32 0 21 15 5 25 -25z m-155 -133 c0 -23 -4 -24 -31 -10 -27
15 -24 30 6 30 18 0 25 -5 25 -20z m202 -30 l16 -50 -36 -30 c-42 -34 -48 -36
-68 -15 -8 8 -24 21 -34 28 -19 13 -19 15 -3 65 l17 52 46 0 46 0 16 -50z
m138 47 c0 -2 -13 -13 -30 -25 l-30 -23 0 26 c0 21 5 25 30 25 17 0 30 -1 30
-3z m-282 -209 c7 -10 3 -18 -14 -31 -25 -19 -28 -16 -18 21 7 25 17 28 32 10z
m196 -10 c10 -37 7 -40 -18 -21 -17 13 -21 21 -14 31 15 18 25 15 32 -10z
m-60 -99 l51 -42 -40 8 c-54 11 -130 8 -158 -6 -13 -7 -18 -7 -12 -1 12 13 99
81 104 81 2 1 26 -18 55 -40z m-604 -210 c0 -6 -4 -7 -10 -4 -5 3 -10 11 -10
16 0 6 5 7 10 4 6 -3 10 -11 10 -16z m1120 5 c0 -8 -5 -12 -10 -9 -6 4 -8 11
-5 16 9 14 15 11 15 -7z m-830 -271 c0 -24 115 -130 153 -142 l39 -13 -35 -24
c-75 -50 -105 -153 -72 -240 23 -60 40 -81 89 -106 38 -19 39 -21 21 -34 -10
-8 -22 -14 -25 -14 -12 0 -50 -78 -51 -106 -1 -20 -3 -23 -6 -9 -56 268 -128
405 -238 456 -22 10 -53 19 -70 19 -28 1 -28 2 -8 10 62 25 153 152 169 236
l7 39 13 -30 c7 -16 13 -36 14 -42z m587 -58 c23 -43 83 -111 123 -137 l25
-17 -25 -1 c-38 -1 -101 -33 -138 -71 -65 -66 -109 -160 -148 -314 -12 -49
-23 -82 -23 -72 -2 45 -58 116 -91 117 -8 0 6 13 32 28 26 15 55 38 66 52 70
92 45 236 -52 299 l-28 19 36 12 c53 17 139 105 161 164 l19 50 11 -45 c7 -24
21 -62 32 -84z m-990 -21 c-3 -3 -12 -4 -19 -1 -8 3 -5 6 6 6 11 1 17 -2 13
-5z m63 -172 c-8 -2 -26 -14 -40 -26 -14 -11 -22 -17 -18 -12 4 4 3 18 -1 30
-8 20 -6 21 33 17 22 -2 34 -6 26 -9z m1261 -11 c-6 -10 -7 -22 -3 -27 4 -5
-2 -2 -13 7 -11 9 -29 21 -40 27 -17 10 -14 11 23 12 39 0 42 -2 33 -19z
m-1343 -243 c50 -81 155 -86 201 -10 13 23 20 28 16 14 -5 -18 3 -33 40 -73
26 -27 59 -78 74 -112 30 -67 67 -204 58 -214 -13 -13 -71 35 -113 92 -46 64
-55 73 -87 88 -59 28 -160 -7 -174 -61 -3 -14 -12 -37 -19 -51 -7 -13 -11 -28
-8 -33 3 -4 0 -8 -6 -8 -7 0 -14 8 -17 18 -6 25 -81 72 -115 72 -15 0 -46 -7
-69 -17 -34 -13 -46 -25 -65 -67 -28 -59 -29 -81 -10 -119 14 -25 13 -26 -2
-18 -9 5 -33 26 -52 46 -48 51 -102 75 -146 65 -76 -17 -112 -61 -121 -143 -6
-62 11 -98 58 -123 49 -25 97 -18 135 20 38 38 37 38 53 -19 16 -62 66 -132
115 -163 l44 -28 -44 -17 -44 -16 0 26 c0 36 -37 73 -72 73 -22 0 -33 -8 -46
-30 -9 -16 -21 -30 -26 -30 -18 0 -121 97 -163 154 -58 78 -90 149 -108 232
-16 76 -13 193 5 251 31 96 129 148 315 168 132 13 152 17 215 35 41 12 81 32
105 54 l40 34 6 -28 c3 -15 16 -43 27 -62z m1507 12 c42 -18 136 -35 250 -45
130 -12 206 -38 264 -90 50 -45 66 -102 65 -225 -2 -117 -30 -206 -98 -309
-45 -68 -158 -181 -180 -181 -6 0 -19 14 -28 30 -13 23 -24 30 -47 30 -37 0
-71 -34 -71 -71 0 -26 0 -27 -37 -14 -45 15 -53 31 -21 40 52 16 138 147 138
210 0 21 4 19 43 -20 39 -39 86 -46 136 -21 57 30 74 81 52 158 -15 54 -44 84
-97 103 -54 18 -101 1 -168 -62 -30 -29 -57 -53 -59 -53 -3 0 1 13 9 30 40 79
-41 200 -134 200 -55 0 -85 -19 -138 -85 -10 -13 -14 -14 -11 -5 3 9 -5 40
-17 69 -52 121 -179 128 -258 14 -38 -56 -83 -99 -109 -106 -23 -6 -23 0 1 92
26 101 72 192 120 235 22 20 38 36 34 36 -3 0 -2 5 2 11 4 7 15 2 31 -15 13
-14 32 -27 41 -27 9 -1 27 -3 39 -4 54 -6 133 74 133 134 0 22 1 22 36 -9 21
-18 56 -40 79 -50z m-1277 25 c-3 -3 -9 2 -12 12 -6 14 -5 15 5 6 7 -7 10 -15
7 -18z m915 10 c-3 -9 -8 -14 -10 -11 -3 3 -2 9 2 15 9 16 15 13 8 -4z m-315
-394 c3 -133 -12 -232 -43 -289 l-14 -27 -1 27 c0 15 -11 39 -24 54 l-23 28
23 19 c50 39 49 136 -1 176 l-25 19 32 19 c31 18 48 42 62 86 3 9 7 17 8 17 2
0 4 -58 6 -129z m-223 27 l31 -21 -28 -28 c-26 -26 -30 -36 -30 -74 0 -45 5
-59 31 -85 28 -29 28 -29 8 -48 -11 -11 -23 -37 -26 -58 l-6 -37 -24 69 c-25
70 -35 198 -23 318 l4 49 16 -33 c8 -18 30 -41 47 -52z m-382 -183 c9 -73 38
-134 84 -180 24 -25 43 -45 41 -46 -2 0 -16 -3 -33 -5 -16 -3 -55 -9 -85 -14
-42 -6 -62 -5 -86 7 -68 31 -126 110 -152 207 l-11 38 27 -7 c15 -4 48 -8 75
-9 43 -1 50 3 85 39 41 45 45 42 55 -30z m103 54 c3 -5 22 -9 42 -9 l38 0 18
-72 c10 -40 31 -99 47 -130 33 -67 24 -75 -39 -33 -74 48 -105 90 -135 179
-23 67 -22 85 3 79 11 -3 23 -9 26 -14z m743 -47 c-30 -94 -79 -161 -151 -205
-53 -33 -60 -22 -28 45 16 34 37 92 47 130 16 63 20 68 44 68 15 0 42 6 60 14
41 18 47 7 28 -52z m198 -19 c26 -3 50 0 71 11 17 9 33 12 36 8 8 -13 -34
-124 -62 -162 -32 -45 -96 -92 -125 -93 -30 0 -148 13 -167 19 -10 4 -4 14 22
37 37 33 84 114 91 157 3 14 8 44 12 67 l7 43 38 -41 c28 -30 48 -42 77 -46z
m-1343 -27 c9 -74 40 -139 88 -187 l47 -47 -37 -8 c-20 -4 -39 -8 -42 -9 -43
-13 -88 -16 -120 -6 -53 16 -123 81 -154 144 -34 70 -34 81 2 72 49 -12 84 -8
111 14 14 12 35 25 46 30 12 5 27 16 34 25 17 21 19 19 25 -28z m1622 -31 c24
-18 57 -21 102 -11 39 9 40 2 10 -62 -30 -63 -102 -133 -158 -152 -42 -15 -50
-15 -121 5 l-75 20 47 48 c38 37 53 62 69 113 11 36 20 77 20 90 l0 24 43 -31
c23 -16 51 -36 63 -44z m-1619 -921 c-3 -3 -12 -4 -19 -1 -8 3 -5 6 6 6 11 1
17 -2 13 -5z m4070 -1009 c0 -41 -2 -75 -6 -75 -4 0 -8 6 -8 13 0 6 -6 36 -13
66 -10 45 -10 55 1 62 23 14 24 12 26 -66z m-5592 -62 c44 6 138 -45 208 -112
83 -78 89 -99 15 -47 -181 126 -411 167 -554 97 -43 -21 -47 -21 -38 2 9 23
67 47 162 67 75 15 91 15 131 3 25 -7 59 -12 76 -10z m4730 13 c85 -12 152
-35 178 -61 31 -31 17 -33 -45 -7 -156 63 -420 3 -577 -132 l-24 -21 11 21
c19 37 137 140 188 163 28 14 72 25 104 26 30 2 66 7 80 13 14 5 30 8 35 6 6
-1 28 -5 50 -8z m871 -117 c5 -63 3 -71 -8 -56 -8 11 -12 38 -10 78 2 33 6 59
8 57 2 -3 6 -38 10 -79z m-6281 21 c4 -6 9 -27 11 -47 11 -87 70 -177 151
-229 29 -18 53 -39 53 -44 0 -6 20 -32 44 -58 25 -26 48 -61 52 -77 24 -103
99 -178 206 -209 70 -20 117 -20 145 -1 30 21 67 103 67 148 1 20 4 37 7 37 4
0 25 -20 47 -45 48 -54 67 -116 66 -211 0 -89 -28 -149 -96 -206 l-46 -40 -38
24 c-22 13 -54 30 -71 37 -31 13 -45 31 -23 31 5 0 17 14 26 32 22 43 6 95
-43 138 -49 43 -89 59 -140 55 -84 -7 -139 -66 -146 -160 -3 -46 -5 -49 -41
-62 -146 -50 -216 -168 -173 -293 12 -34 11 -37 -24 -73 -64 -67 -74 -159 -28
-248 20 -41 20 -42 2 -52 -42 -23 -103 -98 -114 -141 -6 -26 -23 -55 -44 -75
-54 -51 -79 -112 -72 -179 3 -32 8 -66 10 -78 18 -78 79 -154 155 -193 22 -11
50 -35 63 -52 31 -44 110 -79 180 -79 31 0 75 -6 97 -14 74 -27 171 -7 222 44
19 19 19 19 26 -16 18 -96 -21 -201 -104 -283 -50 -49 -135 -102 -146 -90 -2
2 -6 24 -9 49 -3 25 -10 57 -16 72 -6 16 -8 41 -5 57 16 80 -87 161 -207 161
-53 0 -134 -45 -160 -88 -12 -20 -35 -50 -50 -67 -45 -48 -60 -98 -61 -194 0
-149 51 -228 185 -282 l39 -15 -46 -48 c-88 -92 -132 -228 -106 -325 15 -57
81 -123 140 -140 37 -10 48 -19 63 -52 22 -47 73 -96 122 -119 l37 -17 -49
-13 c-58 -16 -126 -53 -172 -92 -29 -26 -39 -29 -75 -23 -110 16 -288 4 -390
-25 -163 -47 -267 -137 -285 -248 -3 -19 -13 -38 -21 -42 -8 -5 -50 -25 -94
-45 -78 -37 -186 -130 -186 -161 0 -17 -12 -18 -27 -3 -6 6 -24 13 -40 14 -15
2 -48 6 -73 10 -43 7 -46 5 -63 -24 -36 -61 -47 -59 -133 32 -44 45 -97 105
-119 132 -22 28 -43 52 -46 55 -3 3 -33 48 -68 100 -35 52 -70 102 -78 111
-13 15 -9 22 39 67 29 28 67 61 83 73 17 13 32 26 35 29 3 3 30 24 61 48 l56
42 104 -12 c57 -6 136 -11 174 -10 80 1 210 25 232 44 18 15 145 277 139 286
-2 4 2 41 10 82 18 95 18 124 -1 161 -15 28 -14 35 15 122 17 51 34 125 37
165 l6 72 -66 133 c-102 204 -132 231 -352 323 -49 20 -93 40 -97 43 -4 4 7
54 24 111 44 150 58 201 63 235 10 66 16 81 42 99 81 57 122 119 216 328 l35
76 51 -25 c29 -13 73 -26 99 -28 26 -2 64 -11 84 -19 50 -21 95 -21 107 2 5 9
9 36 8 59 -1 31 8 55 33 95 115 181 176 318 211 471 32 137 50 187 92 248 28
41 52 132 62 229 7 68 38 257 57 348 8 39 16 52 29 52 10 0 21 -5 24 -10z
m5963 -42 c29 -134 49 -261 57 -353 9 -95 32 -171 74 -243 37 -64 64 -137 76
-212 14 -80 48 -186 80 -248 54 -104 98 -182 134 -238 23 -37 32 -63 33 -95 0
-24 4 -52 9 -61 13 -24 62 -23 116 2 24 10 51 17 62 15 22 -4 111 21 125 35
22 22 43 9 64 -37 12 -27 36 -82 55 -124 43 -95 106 -181 157 -215 34 -23 40
-33 50 -82 6 -32 22 -97 36 -145 13 -48 24 -94 24 -101 0 -7 -30 -27 -67 -44
-38 -18 -113 -57 -168 -88 -55 -30 -129 -65 -165 -76 -79 -24 -103 -36 -205
-104 -130 -85 -199 -164 -208 -235 -3 -25 5 -60 24 -110 16 -41 38 -104 50
-141 11 -38 23 -68 28 -68 4 0 16 -17 27 -37 28 -56 71 -112 128 -166 63 -61
296 -220 419 -287 51 -27 103 -58 115 -68 l24 -19 -46 -40 c-25 -22 -85 -61
-135 -87 -49 -27 -113 -68 -141 -92 -28 -24 -53 -44 -54 -44 -1 0 -17 11 -35
24 -17 13 -53 27 -78 31 l-46 7 -52 -57 -52 -56 -34 14 c-97 40 -297 59 -448
42 -39 -5 -49 -2 -75 23 -45 42 -83 63 -154 87 l-62 21 39 17 c50 22 98 71
118 120 9 22 22 37 32 37 9 0 34 9 56 21 107 57 143 144 110 270 -19 77 -51
133 -106 189 -23 23 -39 42 -38 44 2 1 20 9 39 16 83 32 151 101 172 175 18
64 12 189 -12 238 -19 40 -65 104 -113 156 -76 83 -232 78 -311 -9 -32 -35
-36 -47 -36 -88 1 -58 -21 -182 -32 -182 -21 0 -88 42 -136 85 -72 65 -105
138 -108 238 -1 42 1 77 4 77 4 0 26 -14 50 -30 58 -39 120 -47 187 -26 28 9
76 16 106 16 67 0 147 35 177 78 12 17 46 44 76 60 95 54 139 128 152 258 8
74 -11 123 -76 192 -23 24 -40 53 -40 66 0 30 -49 97 -92 126 -18 13 -34 25
-36 26 -2 1 6 20 17 42 46 89 36 179 -26 247 -28 31 -33 43 -28 64 15 54 9
155 -10 186 -35 55 -108 107 -174 125 -21 5 -25 13 -28 55 -2 27 -14 66 -25
87 -59 104 -219 95 -292 -15 -32 -49 -30 -97 5 -130 l22 -20 -58 -28 c-31 -15
-62 -32 -67 -37 -29 -29 -130 72 -153 153 -19 63 -13 159 14 227 12 33 89 118
105 118 7 0 7 -3 1 -8 -19 -14 -16 -62 6 -109 47 -97 72 -108 182 -79 73 19
109 39 151 82 29 30 75 122 76 152 0 4 21 29 45 55 25 27 45 52 45 58 0 5 18
20 41 34 92 59 149 143 163 244 5 33 19 51 42 51 6 0 16 -24 22 -52z m535
-451 c3 -15 9 -37 12 -48 22 -69 -59 59 -89 142 l-17 46 28 47 28 46 17 -102
c9 -57 18 -115 21 -131z m-5924 36 c-13 -16 -25 -30 -26 -32 -2 -2 -3 5 -3 16
0 11 10 25 23 31 32 16 33 15 6 -15z m4789 -14 c4 -24 3 -24 -12 -4 -19 24
-20 38 -3 33 6 -3 13 -15 15 -29z m-4848 -294 c10 -13 9 -19 -5 -35 -10 -11
-18 -33 -18 -49 0 -28 -2 -28 -41 -24 -23 3 -47 13 -54 22 -17 21 -7 61 20 84
25 21 81 22 98 2z m4971 4 c36 -19 49 -106 16 -106 -7 0 -28 -3 -47 -6 -34 -7
-35 -6 -36 23 -1 17 -9 39 -19 50 -15 16 -15 22 -5 35 14 17 62 20 91 4z
m-4515 -166 c-3 -21 -8 -69 -12 -108 -4 -38 -8 -77 -9 -85 -2 -8 -4 -31 -4
-50 l-1 -34 -58 63 -58 64 46 43 c25 23 56 65 70 93 14 28 27 51 28 51 2 0 1
-17 -2 -37z m4034 -79 c8 -11 29 -31 47 -46 29 -24 31 -27 16 -40 -9 -7 -33
-34 -54 -61 -21 -26 -40 -44 -42 -40 -3 5 -8 37 -11 73 -4 36 -9 76 -11 90 -2
14 -7 52 -10 85 l-5 60 27 -51 c16 -28 35 -59 43 -70z m-4525 -112 c42 -16
149 -85 160 -102 8 -13 -8 -13 -20 -1 -6 5 -38 20 -72 34 -34 14 -72 35 -84
46 -13 12 -30 22 -38 22 -29 2 -56 -3 -65 -12 -13 -12 -56 -12 -56 0 0 6 10
17 23 26 25 18 85 14 152 -13z m5103 12 c47 -32 8 -48 -49 -19 -27 14 -33 14
-64 -1 -19 -9 -35 -20 -35 -24 0 -4 -26 -18 -57 -30 -32 -13 -62 -26 -68 -30
-5 -4 -19 -10 -30 -14 -20 -7 -20 -7 0 11 105 95 248 146 303 107z m-5088
-310 c112 -59 205 -161 274 -301 20 -40 36 -74 36 -75 0 -2 -30 26 -67 61 -79
74 -160 131 -241 169 -52 25 -57 30 -54 56 12 98 -100 157 -160 85 -15 -18
-25 -36 -22 -40 2 -4 0 -10 -6 -14 -15 -9 -24 43 -12 70 9 19 21 25 54 28 80
7 130 -3 198 -39z m5168 18 c12 -16 13 -70 1 -77 -3 -2 -13 11 -22 31 -20 42
-54 59 -101 50 -44 -8 -79 -59 -74 -108 3 -31 0 -34 -64 -65 -75 -36 -145 -85
-228 -161 -30 -28 -56 -49 -58 -47 -5 5 58 126 88 170 71 103 181 190 276 218
61 19 163 12 182 -11z m-5249 -726 c9 -10 8 -15 -4 -19 -8 -4 -24 -21 -35 -39
l-20 -33 0 33 c0 60 32 91 59 58z m5131 -5 c5 -11 10 -32 10 -46 l0 -27 -33
34 c-22 22 -29 37 -23 46 13 18 34 15 46 -7z m233 -127 c-26 -19 -35 -17 -23
6 6 11 16 17 25 13 13 -5 13 -7 -2 -19z m-5619 1 c3 -8 1 -15 -5 -15 -6 0 -17
7 -25 15 -14 13 -13 15 4 15 11 0 22 -7 26 -15z m-71 -414 c-3 -12 -11 -17
-19 -14 -11 4 -12 9 -3 19 16 20 28 17 22 -5z m5758 3 c12 -14 11 -16 -5 -13
-11 2 -21 10 -24 17 -5 17 13 15 29 -4z m-8160 -220 c41 -8 83 -17 94 -20 36
-7 127 -40 227 -83 53 -22 123 -48 154 -56 31 -8 58 -16 59 -17 18 -20 95
-160 95 -172 0 -9 -33 -65 -72 -125 l-73 -109 -55 -5 c-112 -8 -227 1 -269 23
-22 11 -46 20 -53 20 -11 0 -91 -55 -192 -133 l-30 -23 14 -78 c12 -71 18 -85
78 -164 91 -123 137 -219 158 -338 3 -15 7 -30 9 -34 2 -3 8 -44 15 -90 29
-224 67 -349 129 -419 42 -48 70 -55 146 -36 59 16 226 16 230 0 2 -5 6 -27
10 -48 5 -32 13 -41 58 -67 28 -16 64 -32 79 -36 25 -5 28 -10 28 -44 0 -21 5
-51 10 -66 9 -22 7 -31 -9 -48 -22 -24 -42 -91 -43 -145 0 -41 18 -83 52 -118
l21 -23 -24 0 c-45 0 -130 -70 -143 -118 -6 -21 -11 -17 -46 43 -41 72 -87
140 -128 190 -42 52 -221 228 -305 300 -123 106 -386 372 -439 445 -82 111
-178 324 -201 445 -40 208 -29 396 34 603 20 66 36 104 100 245 47 103 188
330 200 322 5 -2 42 -12 82 -21z m10727 -134 c135 -229 214 -431 241 -620 10
-67 7 -299 -4 -360 -15 -76 -77 -245 -125 -339 -78 -151 -266 -361 -525 -586
-84 -72 -263 -248 -305 -300 -34 -41 -101 -140 -134 -198 l-27 -48 -26 38
c-14 21 -33 44 -42 51 -27 22 -95 51 -106 45 -5 -3 2 7 16 23 40 44 52 73 50
126 -1 49 -29 129 -49 142 -7 4 -7 17 -1 39 5 17 9 49 9 69 0 25 5 38 13 38 8
0 42 14 76 31 64 32 81 54 81 105 0 21 99 225 210 429 41 76 151 241 187 280
33 37 86 75 103 75 28 0 82 35 96 62 34 66 9 152 -64 222 -28 26 -33 27 -66
16 -20 -6 -41 -8 -48 -4 -7 4 -25 7 -41 6 -33 -3 -46 10 -156 163 -93 128
-304 455 -299 461 3 2 18 0 34 -4 84 -23 242 3 379 63 116 51 205 83 250 91
17 3 62 13 100 22 84 22 73 31 173 -138z m-7772 -246 c145 -64 255 -190 287
-330 14 -59 15 -182 3 -203 -15 -24 -80 -12 -131 24 -76 55 -181 82 -324 84
l-54 1 36 28 c90 69 104 177 31 241 -39 35 -61 38 -104 16 -23 -12 -30 -23
-30 -45 0 -43 18 -81 40 -87 26 -7 25 -27 -2 -53 -36 -33 -119 -21 -173 27
l-29 26 24 16 c79 49 127 137 118 215 -4 34 -3 34 52 50 102 29 174 26 256
-10z m4867 15 c33 -7 60 -17 62 -23 2 -6 6 -38 9 -71 7 -70 41 -126 98 -164
31 -20 35 -26 26 -41 -17 -27 -58 -47 -111 -55 -44 -7 -51 -5 -78 21 -27 26
-40 52 -20 40 20 -13 53 30 58 76 5 44 4 47 -25 62 -45 23 -74 20 -108 -13
-80 -78 -60 -176 53 -259 22 -16 19 -17 -75 -18 -120 -1 -215 -27 -287 -79
-51 -36 -116 -48 -131 -24 -12 20 -11 153 2 203 35 132 133 252 258 315 99 51
142 56 269 30z m2074 -620 l52 -49 -81 -118 c-136 -197 -299 -377 -334 -370
-10 2 -28 18 -39 36 -19 31 -22 32 -65 26 -25 -3 -54 -6 -65 -5 -11 0 -30 -6
-42 -14 -29 -20 -29 -20 -43 15 -7 17 -16 30 -21 30 -25 0 -4 27 34 42 48 20
62 37 172 198 91 134 163 226 230 293 l47 47 52 -41 c28 -22 74 -63 103 -90z
m-6007 -763 c52 -4 97 -9 100 -11 3 -1 35 -6 72 -9 37 -4 80 -9 95 -12 15 -3
55 -9 88 -15 157 -27 348 -83 475 -141 73 -33 220 -127 220 -141 0 -4 -14 -34
-32 -65 -88 -158 -130 -278 -163 -467 -24 -142 -24 -399 0 -529 52 -272 151
-451 309 -557 105 -70 217 -90 316 -56 120 41 205 110 281 225 144 219 194
537 144 915 -16 124 -72 295 -133 409 -20 38 -43 80 -50 94 -17 31 -13 36 58
84 193 131 429 206 800 255 246 33 412 35 563 10 10 -2 46 -6 80 -10 34 -3 73
-8 87 -10 14 -1 70 -8 125 -15 55 -6 116 -13 135 -16 19 -2 58 -6 85 -9 166
-18 196 -25 250 -60 61 -38 146 -70 215 -80 25 -3 52 -8 60 -10 8 -2 44 -7 80
-10 56 -5 144 -20 240 -40 14 -2 39 -7 55 -11 52 -10 158 -46 205 -69 55 -28
125 -80 216 -160 87 -78 96 -87 123 -136 l23 -41 -44 44 c-55 56 -143 99 -206
103 -71 4 -115 15 -137 35 -41 38 -182 58 -238 35 -51 -21 -94 -61 -107 -99
-8 -25 -21 -38 -52 -52 -53 -24 -96 -68 -120 -122 -28 -63 -31 -78 -34 -175
-2 -79 0 -93 22 -133 22 -39 24 -50 15 -76 -43 -122 39 -263 197 -338 59 -29
74 -41 88 -73 40 -88 123 -135 246 -140 51 -3 71 -8 99 -29 47 -37 81 -48 144
-48 67 0 145 28 217 79 41 29 59 36 76 30 38 -14 120 -2 164 24 24 14 64 47
89 75 28 30 58 52 76 56 17 4 49 23 71 42 22 18 43 34 45 34 3 0 1 -15 -4 -32
-5 -18 -10 -90 -10 -160 0 -80 -4 -128 -10 -128 -28 0 -255 -148 -355 -231
-47 -40 -136 -120 -200 -182 l-62 -59 -7 33 c-12 57 -51 113 -131 188 -94 88
-139 120 -252 176 -144 71 -393 143 -556 161 -33 3 -69 8 -80 10 -56 12 -355
5 -466 -11 -14 -2 -45 -7 -70 -10 -85 -12 -278 -55 -425 -96 -149 -40 -324
-97 -845 -274 -254 -86 -536 -167 -624 -180 -17 -2 -55 -8 -84 -13 -83 -14
-268 -12 -367 4 -180 29 -438 101 -745 209 -127 44 -548 185 -643 214 -75 24
-356 97 -402 105 -31 6 -125 23 -160 30 -11 2 -45 7 -75 10 -30 4 -73 10 -95
13 -54 7 -320 7 -370 -1 -22 -3 -60 -8 -85 -11 -136 -16 -358 -74 -481 -126
-118 -50 -223 -117 -313 -201 -90 -84 -122 -126 -140 -188 l-11 -38 -76 72
c-159 151 -315 275 -419 333 -43 24 -52 36 -76 93 -16 36 -47 94 -70 131 -23
36 -48 89 -57 117 -14 48 -14 56 1 84 8 17 15 46 14 63 -1 27 -35 131 -80 246
-11 26 -10 27 16 13 15 -7 40 -15 56 -18 16 -3 30 -7 32 -9 3 -2 -1 -31 -8
-63 -15 -65 -16 -108 -4 -169 16 -84 86 -168 153 -181 21 -4 47 -24 78 -60 25
-30 65 -64 88 -76 45 -23 126 -32 162 -18 17 6 28 4 42 -9 28 -26 103 -68 153
-86 88 -31 191 -15 248 38 19 18 37 22 94 24 116 4 209 58 240 141 10 26 26
39 86 69 85 42 165 116 193 177 21 46 25 132 8 169 -9 21 -7 32 14 68 30 54
36 154 13 240 -26 102 -66 157 -137 188 -30 14 -46 29 -59 59 -18 39 -61 78
-110 99 -53 22 -193 0 -235 -37 -22 -19 -50 -27 -135 -35 -72 -8 -153 -47
-208 -103 l-44 -44 23 41 c27 49 36 59 120 133 129 113 219 171 314 202 85 27
266 65 364 76 232 26 285 40 389 102 34 20 77 39 95 42 52 8 150 20 252 31 59
6 73 8 170 20 93 12 110 14 180 20 39 4 77 8 85 10 8 2 47 7 85 11 39 3 71 7
72 8 4 3 124 -2 213 -8z m-2920 -541 c0 -8 -4 -15 -10 -15 -5 0 -10 7 -10 15
0 8 5 15 10 15 6 0 10 -7 10 -15z m142 -2 c43 -50 62 -134 43 -194 -14 -44
-55 -96 -103 -130 l-47 -33 27 32 c24 29 25 35 16 69 -10 37 -40 72 -62 74 -6
0 5 8 25 17 64 30 90 58 96 102 4 30 1 45 -12 60 -10 11 -14 20 -8 20 5 0 17
-8 25 -17z m8328 -14 c-28 -51 5 -112 78 -145 l33 -15 -31 -30 c-16 -17 -31
-38 -31 -47 -3 -35 3 -58 19 -76 16 -18 16 -18 -4 -8 -34 18 -90 79 -109 118
-32 68 -18 158 33 217 20 22 27 15 12 -14z m152 16 c0 -5 -5 -11 -10 -13 -5
-1 -9 4 -9 13 0 9 4 14 9 13 5 -2 10 -8 10 -13z m-4269 -169 c249 -339 260
-684 32 -988 -76 -102 -90 -103 -163 -10 -136 171 -198 397 -161 583 6 30 12
64 15 77 8 40 44 125 86 201 42 77 127 201 138 201 3 0 27 -29 53 -64z m-3451
-106 c24 -24 58 -49 76 -57 47 -20 73 -99 58 -179 -8 -41 -66 -103 -127 -135
-66 -35 -168 -33 -230 3 -59 35 -105 88 -137 157 -20 43 -25 71 -26 135 0 46
5 90 12 101 11 19 11 19 12 -7 0 -33 49 -76 82 -73 13 1 30 3 39 4 24 2 32 31
14 51 -13 15 -14 20 -3 26 20 12 87 21 140 19 41 -3 53 -9 90 -45z m7021 29
c18 -10 18 -11 0 -31 -17 -19 -17 -20 6 -39 44 -36 131 6 131 64 1 49 21 -13
24 -74 13 -243 -202 -417 -395 -319 -47 24 -107 83 -120 117 -12 33 -10 101 5
143 9 24 25 41 51 55 21 11 55 36 74 56 20 20 43 38 51 41 22 9 151 -2 173
-13z m832 -341 c-18 -51 -40 -109 -49 -128 l-16 -35 2 35 c2 35 -10 143 -19
165 -3 8 14 17 46 25 28 7 54 16 57 21 15 25 9 0 -21 -83z"/>
</g>
</svg>
